# AST/ASF file generated using VICON BodyLanguage
# -----------------------------------------------
:version 1.10
:name VICON
:units
  mass 1.0
  length 0.45
  angle deg
:documentation
   .ast/.asf automatically generated from VICON data using
   VICON BodyBuilder and BodyLanguage model FoxedUp or BRILLIANT.MOD
:root
   order TX TY TZ RX RY RZ
   axis XYZ
   position 0 0 0  
   orientation 0 0 0 
:bonedata
  begin
     id 1 
     name lhipjoint
     direction 0.660183 -0.676772 0.325788 
     length 2.75133 
     axis 0 0 0  XYZ
  end
  begin
     id 2 
     name lfemur
     direction 0.34202 -0.939693 0  
     length 7.70317  
     axis 0 0 20  XYZ
    dof rx ry rz
    limits (-160.0 20.0)
           (-70.0 70.0)
           (-60.0 70.0)
  end
  begin
     id 3 
     name ltibia
     direction 0.342105 -0.939662 0   
     length 7.18701   
     axis 0 0 20   XYZ
    dof rx
    limits (-10.0 170.0)
  end
  begin
     id 4 
     name lfoot
     direction 0.14163 -0.389126 0.910232   
     length 2.41719   
     axis -90 7.62852e-016 20   XYZ
    dof rx rz
    limits (-45.0 90.0)
           (-70.0 20.0)
  end
  begin
     id 5 
     name ltoes
     direction 1.53533e-011 -4.21926e-011 1   
     length 1.18611   
     axis -90 7.62852e-016 20   XYZ
    dof rx
    limits (-90.0 20.0)
  end
  begin
     id 6 
     name rhipjoint
     direction -0.6658 -0.67229 0.323631   
     length 2.76968  
     axis 0 0 0  XYZ 
  end
  begin
     id 7 
     name rfemur
     direction -0.34202 -0.939693 0   
     length 7.92547   
     axis 0 0 -20   XYZ
    dof rx ry rz
    limits (-160.0 20.0)
           (-70.0 70.0)
           (-70.0 60.0)
  end
  begin
     id 8 
     name rtibia
     direction -0.342022 -0.939692 0   
     length 7.22641   
     axis 0 0 -20   XYZ
    dof rx
    limits (-10.0 170.0)
 end
 begin
     id 9 
     name rfoot
     direction -0.105675 -0.29034 0.951071   
     length 2.48149  
     axis -90 -7.62852e-016 -20   XYZ
    dof rx rz
    limits (-45.0 90.0)
           (-20.0 70.0)
  end
  begin
     id 10 
     name rtoes
     direction -1.5349e-011 -4.21859e-011 1   
     length 1.23343   
     axis -90 -7.62852e-016 -20   XYZ
    dof rx
    limits (-90.0 20.0)
  end
  begin
     id 11 
     name lowerback
     direction 0.0104173 0.993624 -0.112266   
     length 2.00527   
     axis 0 0 0   XYZ
    dof rx ry rz
    limits (-20.0 45.0)
           (-30.0 30.0)
           (-30.0 30.0)
  end
  begin
     id 12 
     name upperback
     direction 0.00733149 0.999856 -0.0152913   
     length 2.01385   
     axis 0 0 0   XYZ
    dof rx ry rz
    limits (-20.0 45.0)
           (-30.0 30.0)
           (-30.0 30.0)
  end
  begin
     id 13 
     name thorax
     direction 0.0026304 0.999318 0.036841   
     length 2.03734   
     axis 0 0 0   XYZ
    dof rx ry rz
    limits (-20.0 45.0)
           (-30.0 30.0)
           (-30.0 30.0)
  end
  begin
     id 14 
     name lowerneck
     direction 0.0293154 0.998757 0.0403082   
     length 1.65303   
     axis 0 0 0   XYZ
    dof rx ry rz
    limits (-20.0 45.0)
           (-30.0 30.0)
           (-30.0 30.0)
  end
  begin
     id 15 
     name upperneck
     direction -0.0376619 0.998184 -0.0470083   
     length 1.60926   
     axis 0 0 0   XYZ
    dof rx ry rz
    limits (-20.0 45.0)
           (-30.0 30.0)
           (-30.0 30.0)
  end
  begin
     id 16
     name head
     direction -0.0170133 0.999635 -0.0209778  
     length 1.73625  
     axis 0 0 0   XYZ
    dof rx ry rz
    limits (-20.0 45.0)
           (-30.0 30.0)
           (-30.0 30.0)
  end
  begin
     id 17 
     name lclavicle
     direction 0.919857 0.39181 -0.0186333  
     length 3.75313  
     axis 0 0 0   XYZ
    dof ry rz
    limits (-20.0 10.0)
           (0.0 20.0)
  end
  begin
     id 18 
     name lhumerus
     direction 1 -4.48988e-011 1.44029e-027   
     length 5.49313   
     axis 180 -30 -90   XYZ
    dof rx ry rz
    limits (-60.0 90.0)
           (-90.0 90.0)
           (-90.0 90.0)
  end
  begin
     id 19
     name lradius
     direction 1 -4.48924e-011 7.46281e-027   
     length 3.29037   
     axis 180 -30 -90   XYZ
    dof rx
    limits (-10.0 170.0)
  end
  begin
     id 20
     name lwrist
     direction 1 -4.48955e-011 2.19879e-026   
     length 1.64519   
     axis -1.34358e-014 90 90   XYZ
    dof ry
    limits (-180.0 0.0)
 end
  begin
     id 21 
     name lhand
     direction 1 -4.48978e-011 4.39747e-026   
     length 0.729656   
     axis -2.80598e-014 90 90   XYZ
    dof rx rz
    limits (-90.0 90.0)
           (-45.0 45.0)
  end
  begin
     id 22 
     name lfingers
     direction 1 -4.49071e-011 8.79411e-026   
     length 0.588268   
     axis -5.61193e-014 90 90   XYZ
    dof rx
    limits (0.0 90.0)
  end
  begin
     id 23
     name lthumb
     direction 0.707107 -6.34817e-011 0.707107   
     length 0.844638   
     axis -90 45 -9.86923e-015   XYZ
    dof rx rz
    limits (-45.0 45.0)
           (-45.0 45.0)
  end
  begin
     id 24 
     name rclavicle
     direction -0.919898 0.388279 0.0550233   
     length 3.7171  
     axis 0 0 0   XYZ 
    dof ry rz
    limits (-10.0 20.0)
           (-20.0 0.0)
  end
  begin
     id 25 
     name rhumerus
     direction -1 -4.48968e-011 9.98372e-028  
     length 5.23684   
     axis 180 30 90   XYZ
    dof rx ry rz
    limits (-90.0 60.0)
           (-90.0 90.0)
           (-90.0 90.0)
  end
  begin
     id 26 
     name rradius
     direction -1 -4.48956e-011 1.01023e-026   
     length 3.38251   
     axis 180 30 90   XYZ
    dof rx
    limits (-10.0 170.0)
  end
  begin
     id 27 
     name rwrist
     direction -1 -4.4892e-011 2.19886e-026   
     length 1.69126   
     axis -1.34358e-014 -90 -90   XYZ
    dof ry
    limits (-180.0 0.0)
  end
  begin
     id 28
     name rhand
     direction -1 -4.49024e-011 4.39727e-026   
     length 0.691454   
     axis -2.80598e-014 -90 -90   XYZ
    dof rx rz
    limits (-90.0 90.0)
           (-45.0 45.0)
  end
  begin
     id 29
     name rfingers
     direction -1 -4.49097e-011 8.79388e-026   
     length 0.557468   
     axis -5.61193e-014 -90 -90   XYZ
    dof rx
    limits (0.0 90.0)
  end
  begin
     id 30
     name rthumb
     direction -0.707107 -6.34938e-011 0.707107   
     length 0.800416   
     axis -90 -45 9.86923e-015   XYZ
    dof rx rz
    limits (-45.0 45.0)
           (-45.0 45.0)
  end
:hierarchy
  begin
    root lhipjoint rhipjoint lowerback
    lhipjoint lfemur
    lfemur ltibia
    ltibia lfoot
    lfoot ltoes
    rhipjoint rfemur
    rfemur rtibia
    rtibia rfoot
    rfoot rtoes
    lowerback upperback
    upperback thorax
    thorax lowerneck lclavicle rclavicle
    lowerneck upperneck
    upperneck head
    lclavicle lhumerus
    lhumerus lradius
    lradius lwrist
    lwrist lhand lthumb
    lhand lfingers
    rclavicle rhumerus
    rhumerus rradius
    rradius rwrist
    rwrist rhand rthumb
    rhand rfingers
  end

#!OML:ASF H:\BabyWalks\Project 1\Capture day 1\Session 1\baby.ASF
:FULLY-SPECIFIED
:DEGREES
245
root -21.6922 17.2165 -2.22112 -10.4106 78.2477 -16.8268
lowerback 20.7707 2.5791 -2.89482
upperback 6.49326 3.03717 -2.15885
thorax -4.55818 1.65939 -1.41164
lowerneck -1.18993 1.60758 5.68353
upperneck -6.22161 2.27054 -0.11292
head -1.67662 1.05283 -1.01828
rclavicle 2.70347e-014 -2.3059e-014
rhumerus -45.0922 16.3888 -88.9222
rradius 50.4376
rwrist -8.31613
rhand -19.1574 -15.8501
rfingers 7.12502
rthumb 7.15323 -45.7092
lclavicle 2.70347e-014 -2.3059e-014
lhumerus -45.7184 -9.12463 71.5065
lradius 42.3958
lwrist -1.66811
lhand 4.54487 8.73756
lfingers 7.12502
lthumb 29.9358 36.3364
rfemur -5.92001 9.38579 20.2858
rtibia 51.4883
rfoot -13.3094 9.87213
rtoes -15.433
lfemur -28.2607 2.78614 -13.3383
ltibia 44.9409
lfoot -25.5489 -9.7653
ltoes 2.55664
246
root -21.5475 17.1825 -2.21112 -7.4207 78.5942 -13.6259
lowerback 20.9644 2.46203 -3.83268
upperback 6.58284 2.69019 -2.45136
thorax -4.58137 1.49718 -1.11749
lowerneck -0.98344 1.5944 5.56862
upperneck -6.40051 2.28625 0.158088
head -1.77298 1.055 -0.91785
rclavicle -3.81667e-014 1.11319e-014
rhumerus -45.2458 16.258 -89.0833
rradius 49.996
rwrist -7.80161
rhand -19.8534 -16.1135
rfingers 7.12502
rthumb 6.48136 -45.9944
lclavicle -3.81667e-014 1.11319e-014
lhumerus -44.4316 -9.19183 71.2544
lradius 41.935
lwrist -2.88504
lhand 4.00685 8.43719
lfingers 7.12502
lthumb 29.4222 36.1275
rfemur -7.36647 8.72706 19.3016
rtibia 54.3609
rfoot -13.726 9.92818
rtoes -14.7548
lfemur -27.7315 2.80712 -14.2302
ltibia 45.173
lfoot -26.1215 -9.94855
ltoes 2.71951
247
root -21.4033 17.1517 -2.20147 -4.62836 78.9681 -10.733
lowerback 21.0905 2.30882 -4.62363
upperback 6.64177 2.32624 -2.70089
thorax -4.59088 1.32561 -0.852972
lowerneck -0.9028 1.5788 5.40718
upperneck -6.44587 2.28599 0.428337
head -1.80516 1.0525 -0.806399
rclavicle -4.29375e-014 1.35174e-014
rhumerus -45.4214 16.1279 -89.1982
rradius 49.5179
rwrist -7.21975
rhand -20.4127 -16.4256
rfingers 7.12502
rthumb 5.94135 -46.3223
lclavicle -4.29375e-014 1.35174e-014
lhumerus -43.1034 -9.22801 71.0107
lradius 41.5425
lwrist -4.24957
lhand 3.41668 8.11871
lfingers 7.12502
lthumb 28.8586 35.9067
rfemur -8.92742 7.98118 18.4005
rtibia 56.9824
rfoot -14.2208 10.0767
rtoes -14.2028
lfemur -27.3134 2.78921 -15.0277
ltibia 45.3807
lfoot -26.6853 -10.1568
ltoes 2.89993
248
root -21.2592 17.1241 -2.19309 -2.36584 79.3516 -8.47159
lowerback 21.1565 2.11711 -5.20399
upperback 6.67694 1.95685 -2.89545
thorax -4.58472 1.14999 -0.644567
lowerneck -0.937871 1.56228 5.21814
upperneck -6.38159 2.27275 0.69136
head -1.78215 1.04658 -0.689953
rclavicle -1.59028e-015 5.56597e-014
rhumerus -45.6164 15.9998 -89.2663
rradius 49.0276
rwrist -6.5854
rhand -20.7935 -16.7675
rfingers 7.12502
rthumb 5.57374 -46.6742
lclavicle -1.59028e-015 5.56597e-014
lhumerus -41.7554 -9.22091 70.7759
lradius 41.2605
lwrist -5.67035
lhand 2.74561 7.80085
lfingers 7.12502
lthumb 28.2174 35.6965
rfemur -10.5877 7.19143 17.6666
rtibia 59.3444
rfoot -14.7651 10.3473
rtoes -13.8502
lfemur -27.0168 2.73436 -15.6587
ltibia 45.6337
lfoot -27.263 -10.3491
ltoes 3.07661
249
root -21.1148 17.1003 -2.18642 -0.804658 79.7352 -6.98729
lowerback 21.1839 1.89595 -5.55621
upperback 6.69239 1.59679 -3.03529
thorax -4.57318 0.977557 -0.50725
lowerneck -1.04018 1.54152 5.034
upperneck -6.25807 2.24611 0.928767
head -1.72842 1.03576 -0.581292
rclavicle -7.15625e-015 3.81667e-014
rhumerus -45.8317 15.8501 -89.2863
rradius 48.5372
rwrist -5.90881
rhand -20.9564 -17.121
rfingers 7.12502
rthumb 5.41645 -47.0318
lclavicle -7.15625e-015 3.81667e-014
lhumerus -40.4127 -9.19764 70.5657
lradius 41.1207
lwrist -7.01614
lhand 1.94515 7.51678
lfingers 7.12502
lthumb 27.4521 35.5363
rfemur -12.2992 6.40199 17.1345
rtibia 61.3861
rfoot -15.2748 10.7525
rtoes -13.5935
lfemur -26.7872 2.64734 -16.1018
ltibia 45.889
lfoot -27.8288 -10.5252
ltoes 3.22918
250
root -20.9698 17.08 -2.18151 -0.0132031 80.1035 -6.32131
lowerback 21.1851 1.65289 -5.71005
upperback 6.69848 1.25043 -3.11255
thorax -4.55566 0.810277 -0.417303
lowerneck -1.17774 1.52336 4.86406
upperneck -6.12398 2.21733 1.10928
head -1.66475 1.02501 -0.492838
rclavicle 1.11319e-014 1.74931e-014
rhumerus -46.0611 15.7228 -89.2583
rradius 48.058
rwrist -5.22761
rhand -20.909 -17.4462
rfingers 7.12502
rthumb 5.46219 -47.3558
lclavicle 1.11319e-014 1.74931e-014
lhumerus -39.1006 -9.14347 70.4064
lradius 41.1474
lwrist -8.15392
lhand 0.979855 7.2896
lfingers 7.12502
lthumb 26.5286 35.4521
rfemur -14.0341 5.65404 16.8083
rtibia 63.1032
rfoot -15.7536 11.2509
rtoes -13.5189
lfemur -26.5829 2.53233 -16.3603
ltibia 46.1421
lfoot -28.4056 -10.6642
ltoes 3.37326
251
root -20.8241 17.0631 -2.17788 0.114829 80.448 -6.3333
lowerback 21.1826 1.40938 -5.7013
upperback 6.6964 0.936318 -3.14443
thorax -4.54536 0.6578 -0.378503
lowerneck -1.2847 1.49872 4.75444
upperneck -6.03109 2.17895 1.20656
head -1.61877 1.00864 -0.441568
rclavicle -2.94201e-014 -2.22639e-014
rhumerus -46.3279 15.5739 -89.1903
rradius 47.6061
rwrist -4.57198
rhand -20.6641 -17.7057
rfingers 7.12502
rthumb 5.6987 -47.6091
lclavicle -2.94201e-014 -2.22639e-014
lhumerus -37.8443 -9.14592 70.32
lradius 41.3694
lwrist -8.93859
lhand -0.160409 7.17223
lfingers 7.12502
lthumb 25.4367 35.495
rfemur -15.7568 4.9824 16.6558
rtibia 64.5007
rfoot -16.1853 11.8057
rtoes -13.5024
lfemur -26.3518 2.39124 -16.4741
ltibia 46.3707
lfoot -28.9868 -10.7556
ltoes 3.51481
252
root -20.6778 17.0498 -2.17483 -0.183283 80.7637 -6.76653
lowerback 21.1955 1.17384 -5.60738
upperback 6.68589 0.648525 -3.13282
thorax -4.55376 0.517547 -0.348194
lowerneck -1.33938 1.47624 4.69397
upperneck -5.99967 2.14368 1.2095
head -1.60027 0.992752 -0.429301
rclavicle -6.36111e-015 3.18055e-015
rhumerus -46.631 15.4366 -89.0808
rradius 47.184
rwrist -3.97069
rhand -20.228 -17.8899
rfingers 7.12502
rthumb 6.11972 -47.7815
lclavicle -6.36111e-015 3.18055e-015
lhumerus -36.6706 -9.21066 70.3296
lradius 41.7961
lwrist -9.27939
lhand -1.47389 7.16859
lfingers 7.12502
lthumb 24.1779 35.6647
rfemur -17.4518 4.39465 16.6192
rtibia 65.5917
rfoot -16.6229 12.3725
rtoes -13.6292
lfemur -26.0659 2.22454 -16.5006
ltibia 46.549
lfoot -29.5575 -10.7986
ltoes 3.64634
253
root -20.531 17.0408 -2.17173 -0.62332 81.0372 -7.32474
lowerback 21.228 0.958348 -5.49652
upperback 6.67005 0.389142 -3.08583
thorax -4.57983 0.390769 -0.296912
lowerneck -1.34627 1.46001 4.67653
upperneck -6.02704 2.11646 1.1171
head -1.60755 0.980051 -0.455144
rclavicle 1.90833e-014 4.29375e-014
rhumerus -46.9587 15.329 -88.9307
rradius 46.7771
rwrist -3.43985
rhand -19.6441 -17.984
rfingers 7.12502
rthumb 6.6834 -47.8585
lclavicle 1.90833e-014 4.29375e-014
lhumerus -35.5916 -9.36425 70.4474
lradius 42.4367
lwrist -9.12917
lhand -2.93745 7.29465
lfingers 7.12502
lthumb 22.774 35.9704
rfemur -19.11 3.907 16.6395
rtibia 66.388
rfoot -17.0628 12.9039
rtoes -13.7955
lfemur -25.7077 2.05282 -16.5018
ltibia 46.6479
lfoot -30.1011 -10.7916
ltoes 3.74177
254
root -20.3837 17.036 -2.16777 -1.08109 81.2611 -7.88043
lowerback 21.2825 0.769375 -5.40045
upperback 6.64642 0.159903 -3.00678
thorax -4.62688 0.278454 -0.210531
lowerneck -1.31641 1.45229 4.69185
upperneck -6.08963 2.09935 0.94371
head -1.63138 0.972105 -0.51265
rclavicle 7.15625e-015 5.88403e-014
rhumerus -47.3015 15.2548 -88.7432
rradius 46.3604
rwrist -2.94869
rhand -18.9366 -17.9868
rfingers 7.12502
rthumb 7.36633 -47.8386
lclavicle 7.15625e-015 5.88403e-014
lhumerus -34.6204 -9.62024 70.6668
lradius 43.2875
lwrist -8.51902
lhand -4.50889 7.53634
lfingers 7.12502
lthumb 21.2652 36.3898
rfemur -20.7278 3.52533 16.6932
rtibia 66.9026
rfoot -17.5164 13.355
rtoes -13.9883
lfemur -25.2643 1.8875 -16.4968
ltibia 46.6479
lfoot -30.6057 -10.748
ltoes 3.81596
255
root -20.236 17.0361 -2.16237 -1.48358 81.4347 -8.36476
lowerback 21.3539 0.605174 -5.34416
upperback 6.61762 -0.045467 -2.89227
thorax -4.68839 0.17747 -0.0693322
lowerneck -1.29158 1.45959 4.71687
upperneck -6.14795 2.0982 0.707919
head -1.65213 0.973063 -0.591496
rclavicle 2.46493e-014 5.725e-014
rhumerus -47.6312 15.2406 -88.516
rradius 45.9175
rwrist -2.5049
rhand -18.1094 -17.9234
rfingers 7.12502
rthumb 8.16473 -47.7457
lclavicle 2.46493e-014 5.725e-014
lhumerus -33.7565 -9.93885 70.9685
lradius 44.3342
lwrist -7.56313
lhand -6.13171 7.85165
lfingers 7.12502
lthumb 19.7057 36.8728
rfemur -22.3026 3.25663 16.7685
rtibia 67.1416
rfoot -17.9913 13.6786
rtoes -14.2113
lfemur -24.7339 1.72863 -16.4937
ltibia 46.5337
lfoot -31.0537 -10.6779
ltoes 3.89184
